<?xml version="1.0" encoding="UTF-8" standalone="no"?>
<svg width="20px" height="19px" viewBox="0 0 20 19" version="1.1" xmlns="http://www.w3.org/2000/svg" xmlns:xlink="http://www.w3.org/1999/xlink">
    <!-- Generator: Sketch 50.2 (55047) - http://www.bohemiancoding.com/sketch -->
    <title>1H</title>
    <desc>Created with Sketch.</desc>
    <defs></defs>
    <g id="Symbols" stroke="none" stroke-width="1" fill="none" fill-rule="evenodd">
        <g id="Navigation" transform="translate(-1391.000000, -34.000000)" fill="#F26453">
            <path d="M1392.72785,34 C1391.77506,34 1391,34.7256962 1391,35.6192405 L1391,46.1887342 C1391,47.0822785 1391.77506,47.8079747 1392.72785,47.8079747 L1393.83861,47.8079747 L1393.83861,51.5697468 C1393.83861,51.8560759 1394.00448,52.1177215 1394.26415,52.2411392 C1394.36486,52.2905063 1394.47199,52.3102532 1394.57862,52.3102532 C1394.74844,52.3102532 1394.91629,52.2559494 1395.05156,52.1424051 L1400.27657,47.8079747 L1408.77215,47.8079747 C1409.72494,47.8079747 1410.5,47.0822785 1410.5,46.1887342 L1410.5,35.6192405 C1410.5,34.7256962 1409.72494,34 1408.77215,34 L1392.72785,34 Z" id="1H"></path>
        </g>
    </g>
</svg>