<?xml version="1.0" encoding="UTF-8"?>
<svg width="48px" height="44px" viewBox="0 0 48 44" version="1.1" xmlns="http://www.w3.org/2000/svg" xmlns:xlink="http://www.w3.org/1999/xlink">
    <!-- Generator: Sketch 50.2 (55047) - http://www.bohemiancoding.com/sketch -->
    <title>Shower</title>
    <desc>Created with Sketch.</desc>
    <defs></defs>
    <g id="Shower" stroke="none" stroke-width="1" fill="none" fill-rule="evenodd">
        <g id="Group" transform="translate(6.000000, 1.000000)">
            <path d="M3.031,24.9296809 C3.59591649,17.6770493 10.1078629,11.9296809 18.0313668,11.9296809 C25.9541371,11.9296809 32.4660835,17.6770493 33.031,24.9296809 L3.031,24.9296809 Z M0.031,26.7526809 C0.031,27.382174 0.539903532,27.8903191 1.1686383,27.8903191 L15.9579362,27.8903191 L34.5393617,27.8903191 C35.167338,27.8903191 35.677,27.382174 35.677,26.7526809 C35.677,16.923486 27.681678,8.92968085 17.854,8.92968085 C8.02632196,8.92968085 0.031,16.923486 0.031,26.7526809 Z" id="5J" fill="#F26453"></path>
            <circle id="Oval" fill="#F26453" cx="7" cy="32" r="2"></circle>
            <circle id="Oval-Copy-3" fill="#F26453" cx="13" cy="40" r="2"></circle>
            <circle id="Oval-Copy" fill="#F26453" cx="18" cy="32" r="2"></circle>
            <circle id="Oval-Copy-4" fill="#F26453" cx="23" cy="40" r="2"></circle>
            <circle id="Oval-Copy-2" fill="#F26453" cx="28" cy="32" r="2"></circle>
            <path d="M17.5,9.5 L17.5,0" id="Line" stroke="#F26453" stroke-width="2.5" stroke-linecap="square"></path>
        </g>
    </g>
</svg>