<?xml version="1.0" encoding="UTF-8"?>
<svg width="139px" height="151px" viewBox="0 0 139 151" version="1.1" xmlns="http://www.w3.org/2000/svg" xmlns:xlink="http://www.w3.org/1999/xlink">
    <!-- Generator: Sketch 50.2 (55047) - http://www.bohemiancoding.com/sketch -->
    <title>HEART_GREY_RGB</title>
    <desc>Created with Sketch.</desc>
    <defs></defs>
    <g id="Page-1" stroke="none" stroke-width="1" fill="none" fill-rule="evenodd">
        <g id="HEART_GREY_RGB" fill="#FFFFFF" fill-rule="nonzero">
            <path d="M30.9,47.9 L33,45.8 L25.9,38.7 C23.5,35 22.3,30.7 22.3,26.3 C22.3,13.5 32.7,3 45.6,3 C54.5,3 62.4,7.9 66.4,15.9 L67.7,18.6 L69,15.9 C73,8 80.9,3 89.8,3 C102.6,3 113.1,13.4 113.1,26.3 C113.1,30.7 111.9,34.9 109.6,38.6 L109.2,39 L111.3,41.1 L111.8,40.6 L112,40.3 C114.7,36.1 116.1,31.2 116.1,26.2 C116.1,11.7 104.3,1.42108547e-14 89.9,1.42108547e-14 C80.8,1.42108547e-14 72.6,4.6 67.8,12.2 C63,4.6 54.8,1.42108547e-14 45.7,1.42108547e-14 C31.2,1.42108547e-14 19.5,11.8 19.5,26.2 C19.5,31.2 20.9,36.2 23.7,40.4 L30.9,47.9 Z" id="Shape"></path>
            <path d="M116.6,31.6 C116.4,32.7 116,33.8 115.7,34.9 C127.7,46.9 135.2,63.4 135.2,81.7 C135.2,118.1 105.6,147.8 69.1,147.8 C32.7,147.8 3,118.2 3,81.7 C3,64.5 9.6,48.8 20.5,37 C20.1,36.1 19.7,35 19.3,33.9 C7.3,46.3 0,63.2 0,81.7 C0,119.8 31,150.8 69.1,150.8 C107.2,150.8 138.2,119.8 138.2,81.7 C138.2,62 129.9,44.2 116.6,31.6 Z" id="Shape"></path>
            <rect id="Rectangle-path" transform="translate(64.644590, 86.227310) rotate(-44.959485) translate(-64.644590, -86.227310) " x="62.8946063" y="84.6773245" width="3.49996731" height="3.09997105"></rect>
            <polygon id="Shape" points="109.2 41.9 107 41.8 68 80.7 35.2 48 33.1 48 33.1 50.1 72.6 89.6 74.7 87.5 70.2 82.9 109.1 44"></polygon>
        </g>
    </g>
</svg>