<svg id="Layer_1" xmlns="http://www.w3.org/2000/svg" viewBox="0 0 841.9 595.3"><style>.st0{fill:#fff}</style><path class="st0" d="M500.4 307.2v53.5h-6.7v-52.2c0-20.7-11.2-32.2-29.7-32.2-17.3 0-31.3 13.8-31.3 33.2v51.2h-6.5v-89h6.5v19.7c4.8-12.8 17.5-21.2 32.3-21.2 22.6 0 35.4 15.5 35.4 37M323.5 324.2c0 19.7-15.7 31.8-33.8 31.8-12.8 0-23.2-6.5-23.2-19.3 0-14.3 15.5-19.3 28.3-19.3h28.7v6.8zm-27.5-54c-14.7 0-23.7 6.5-29 13.6l3.2 7.2c3.6-7.2 11.2-14.6 25.9-14.6 17.8 0 27.2 11.2 27.2 28.8v6.2h-28.8c-16.5 0-34.8 7.3-34.8 25.5 0 16.8 13.7 25.3 29.8 25.3 14 0 27-7.5 33.8-21.2v19.7h6.7v-56c0-22.7-14-34.5-34-34.5M411.2 269.3l-43.8 105 5.7 2.4 43.8-105-1.7-4z"/><path class="st0" d="M378.1 357.1l-47.7-102.6-4-1.6-1.6 4 49.8 107.5c1.1-2.3 2.5-5.1 3.5-7.3zM377.9 371.8l2.1 4.8 5.6-2.4-4.5-10.3zM450.5 219.3c-.1-1.2-1.1-2.1-2.3-2.1h-3.3V247.9c0 3.8-2 6-5.4 6.2h-2v4.9h1.9c5.3-.1 11-3.5 11-10.8v-12l.1-16.9z"/><path class="st0" d="M438.7 249.5c1.2-.1 2.1-1.1 2.1-2.3v-2.6h-9v-25.2c0-1.2-1-2.2-2.2-2.3h-3.4v30.3c.1 1.2 1.1 2.1 2.3 2.1h10.2zM506.2 237.8c0-4-.4-6.8-2.6-9.1-1-1.1-3.3-2.8-7.2-2.8-3.7 0-6 1.5-7.2 2.8-2.2 2.3-2.6 5.1-2.6 9.1 0 4.1.4 6.9 2.6 9.2 1.2 1.3 3.5 2.9 7.2 2.9 4 0 6.2-1.8 7.2-2.8 2.1-2.5 2.6-5.3 2.6-9.3m-6.7 6.2c-.8.8-1.9 1.2-3.2 1.2-1.3 0-2.3-.4-3.1-1.2-1.4-1.4-1.5-3.8-1.5-6.2 0-2.5.1-4.8 1.5-6.2.8-.8 1.8-1.2 3.1-1.2s2.4.4 3.2 1.2c1.4 1.4 1.5 3.7 1.5 6.2 0 2.4-.1 4.8-1.5 6.2M526.1 228.6c-1.2-1.3-3.5-2.8-7.2-2.8s-6 1.5-7.2 2.8c-2.2 2.3-2.6 5.1-2.6 9.1 0 4.1.4 6.9 2.6 9.2 1.2 1.3 3.4 2.9 7.2 2.9 3.8 0 6-1.5 7.2-2.8 2.2-2.3 2.6-5.1 2.6-9.2s-.4-6.9-2.6-9.2M522 244c-.8.8-1.8 1.2-3.2 1.2-1.3 0-2.3-.4-3.1-1.2-1.4-1.4-1.5-3.8-1.5-6.2 0-2.5.1-4.8 1.5-6.2.8-.8 1.8-1.2 3.1-1.2s2.4.4 3.2 1.2c1.4 1.4 1.5 3.7 1.5 6.2 0 2.4-.1 4.8-1.5 6.2M546.1 249.5h6l-9.1-14.1 8.3-9.3h-6.1l-8.7 10.5v-17.1c0-1.2-1-2.3-2.2-2.3h-2.9v30.1c0 1.3 1 2.3 2.3 2.3h2.9v-7l3.3-3.7 6.2 10.6zM480.6 249.5h3.3v-30c0-1.2-1-2.3-2.2-2.3h-3.4v13.6h-11v-11.3c0-1.2-1-2.3-2.2-2.3h-3.4v30.1c0 1.2 1 2.2 2.3 2.2h3.3v-13.9h11v11.7c0 1.2 1.1 2.2 2.3 2.2M583.4 231.1h2.5v-5h-2.5c-4.8 0-8.7 3.9-8.7 8.7v14.8h2.8c1.3 0 2.3-1.1 2.3-2.3v-12.5c0-2.1 1.6-3.7 3.6-3.7"/><path class="st0" d="M572 237c0-6.8-4-11.2-10.2-11.2-6.3 0-10.1 4.6-10.1 12 0 8 3.6 12 10.8 12 4.2 0 6.4-1.3 8.6-3.4l-3.1-3c-1.4 1.3-2.8 2.1-5.5 2.1-3.5 0-5.8-2.3-5.8-5.9v-.4h14.7l.5-.5V237zm-15.3-1v-.5c0-1.2.2-1.8.6-2.8.8-1.8 2.4-2.8 4.5-2.8 2 0 3.7 1 4.5 2.8.4.9.5 1.6.6 2.8v.5h-10.2zM511.7 325.4v-53.7h6.5v52.4c0 20.5 11.3 32.2 29.8 32.2 17.3 0 31.3-13.8 31.3-33.3v-51.2h6.5v89h-6.5v-19.7c-4.8 12.8-17.5 21.3-32.3 21.3-22.4 0-35.3-15.7-35.3-37"/></svg>