<?xml version="1.0" encoding="UTF-8" standalone="no"?>
<svg width="60px" height="60px" viewBox="0 0 60 60" version="1.1" xmlns="http://www.w3.org/2000/svg" xmlns:xlink="http://www.w3.org/1999/xlink">
    <!-- Generator: Sketch 50 (54983) - http://www.bohemiancoding.com/sketch -->
    <title>Clock</title>
    <desc>Created with Sketch.</desc>
    <defs>
        <polygon id="path-1" points="0.133547415 0.187196506 8.92142205 0.187196506 8.92142205 20.7117438 0.133547415 20.7117438"></polygon>
    </defs>
    <g id="Desktop" stroke="none" stroke-width="1" fill="none" fill-rule="evenodd">
        <g id="Desktop-HD" transform="translate(-229.000000, -590.000000)">
            <g id="Clock" transform="translate(229.000000, 590.000000)">
                <g id="Group-8-Copy" transform="translate(29.000000, 14.000000)">
                    <mask id="mask-2" fill="white">
                        <use xlink:href="#path-1"></use>
                    </mask>
                    <g id="Clip-7"></g>
                    <polygon id="Fill-6" fill="#F36453" mask="url(#mask-2)" points="7.91457615 0.500696991 0.133547415 20.2709979 1.13861694 20.7117814 8.92142205 0.937526496 8.62778827 0.187196506"></polygon>
                </g>
                <path d="M32,31.608157 L23.050618,12.2961008 L22.2972562,12 L22,12.7619935 L31.3462238,33 C31.5590855,32.5423897 31.8060802,32.0183309 32,31.608157" id="Fill-9-Copy" fill="#F36453"></path>
                <polygon id="Fill-11-Copy" fill="#F36453" points="32 33.2360751 32.5412713 34 34 33.6145809 32.8511634 32"></polygon>
                <path d="M30,60 C46.5418752,60 60,46.5420182 60,30.0000921 C60,13.4579818 46.5418752,0 30,0 C13.4581248,0 0,13.4579818 0,30.0000921 C0,46.5420182 13.4581248,60 30,60 M30,1.30315808 C45.8232241,1.30315808 58.6966617,14.1766352 58.6966617,30.0000921 C58.6966617,45.8233648 45.8232241,58.6966576 30,58.6966576 C14.1767759,58.6966576 1.30333835,45.8233648 1.30333835,30.0000921 C1.30333835,14.1766352 14.1767759,1.30315808 30,1.30315808" id="Fill-1" fill="#F36453"></path>
            </g>
        </g>
    </g>
</svg>