<?xml version="1.0" encoding="UTF-8"?>
<svg width="16px" height="14px" viewBox="0 0 16 14" version="1.1" xmlns="http://www.w3.org/2000/svg" xmlns:xlink="http://www.w3.org/1999/xlink">
    <!-- Generator: Sketch 50.2 (55047) - http://www.bohemiancoding.com/sketch -->
    <title>Carspots</title>
    <desc>Created with Sketch.</desc>
    <defs></defs>
    <g id="Symbols" stroke="none" stroke-width="1" fill="none" fill-rule="evenodd">
        <g id="Carspots" fill="#F26453">
            <path d="M11.9826212,7.91575512 C12.438849,7.91575512 12.8084696,8.28537571 12.8084696,8.74196586 C12.8084696,9.198556 12.438849,9.5681766 11.9826212,9.5681766 C11.5263934,9.5681766 11.1567728,9.198556 11.1567728,8.74196586 C11.1567728,8.28537571 11.5263934,7.91575512 11.9826212,7.91575512 Z M3.78574096,7.91575512 C4.24196873,7.91575512 4.61158933,8.28537571 4.61158933,8.74196586 C4.61158933,9.198556 4.24196873,9.5681766 3.78574096,9.5681766 C3.32951318,9.5681766 2.95989259,9.198556 2.95989259,8.74196586 C2.95989259,8.28537571 3.32951318,7.91575512 3.78574096,7.91575512 Z M14.8225394,11.1444997 L1.10889063,11.1444997 C1.09113435,10.2675567 1.0661306,8.48830466 1.12084895,7.32146318 C1.16687033,6.33580826 1.92278069,6.29232348 2.15071339,6.29957095 C2.16303407,6.29957095 2.17499239,6.29957095 2.18767545,6.29957095 C2.28732806,6.29957095 12.1612712,6.20897766 13.7307092,6.29957095 C14.7562252,6.35755065 14.8200028,7.40843273 14.8225394,7.61860915 L14.8225394,11.1444997 Z M4.01222417,1.83151023 C4.01910925,1.81339157 4.02490722,1.79889665 4.02998045,1.78077799 C4.03215469,1.77353053 4.25356467,1.07777412 4.85148034,1.08864531 C5.52404487,1.09589277 10.6646701,1.08864531 10.9128957,1.08864531 C10.9154323,1.08864531 11.3202031,1.07052665 11.5082748,1.52349307 C11.7496153,2.10691381 12.5656796,4.09634231 13.0132104,5.19070916 C10.5657423,5.14722439 4.35792813,5.19433289 2.62361032,5.20882782 L4.01222417,1.83151023 Z M14.223899,5.27767872 C13.8941395,4.47321036 12.7986855,1.79889665 12.5124107,1.10676397 C12.1290199,0.182712481 11.2912133,-0.0202164731 10.882094,0.00152591477 C10.8288251,0.00152591477 5.52839335,0.0087733774 4.86126441,0.00152591477 C4.85510407,0.00152591477 4.8493061,0.00152591477 4.84350813,0.00152591477 C3.74624229,0.00152591477 3.17224325,0.889340088 2.9975794,1.44014725 L1.39625253,5.33565842 C1.16687033,5.41175677 0.919731858,5.53858737 0.695422889,5.73789259 C0.287390742,6.10751319 0.0652560126,6.62208303 0.0348166696,7.27073094 C-0.0416440613,8.90141003 0.0311929382,11.5902187 0.0344542964,11.7061781 C0.0424265053,11.9997003 0.283404638,12.2316191 0.577651621,12.2316191 L2.05395976,12.2316191 L2.05395976,13.4564403 C2.05395976,13.75721 2.29711213,14 2.59751946,14 C2.89756441,14 3.14107916,13.75721 3.14107916,13.4564403 L3.14107916,12.2316191 L12.6080772,12.2316191 L12.6080772,13.4564403 C12.6080772,13.75721 12.8512296,14 13.1516369,14 C13.4516819,14 13.6951966,13.75721 13.6951966,13.4564403 L13.6951966,12.2316191 L15.3660991,12.2316191 C15.6665065,12.2316191 15.9096588,11.9888291 15.9096588,11.6880594 L15.9096588,7.61860915 C15.9096588,6.90111035 15.5422125,5.58569588 14.223899,5.27767872 Z" id="1I"></path>
        </g>
    </g>
</svg>