<?xml version="1.0" encoding="UTF-8" standalone="no"?>
<svg width="13px" height="16px" viewBox="0 0 13 16" version="1.1" xmlns="http://www.w3.org/2000/svg" xmlns:xlink="http://www.w3.org/1999/xlink">
    <!-- Generator: Sketch 50.2 (55047) - http://www.bohemiancoding.com/sketch -->
    <title>8I</title>
    <desc>Created with Sketch.</desc>
    <defs></defs>
    <g id="Symbols" stroke="none" stroke-width="1" fill="none" fill-rule="evenodd">
        <g id="facility-icons-large" transform="translate(-5.000000, -7.000000)" fill="#F26453">
            <path d="M16.6486486,21.5576148 L13.8957529,21.5576148 L13.8957529,17.8896611 C13.8957529,17.1444874 13.2393822,16.5383098 12.4324324,16.5383098 L10.4401544,16.5383098 C9.63320463,16.5383098 8.97297297,17.1444874 8.97297297,17.8896611 L8.97297297,21.5576148 L6.35135135,21.5576148 C6.24710425,21.5576148 6.15830116,21.4688117 6.15830116,21.3645646 L6.15830116,13.9282712 L11.4749035,8.74294298 L16.7799228,13.727499 L16.8416988,21.3645646 C16.8416988,21.4688117 16.7528958,21.5576148 16.6486486,21.5576148 Z M17.8880309,13.2410125 C17.8532819,13.1676534 17.8108108,13.1058773 17.7567568,13.0556843 C17.7567568,13.0556843 15.7927928,11.2101244 11.8648649,7.51900476 C11.6409266,7.30664954 11.2857143,7.31051055 11.0656371,7.52672676 L5.17760618,13.2680395 C5.11969112,13.3259546 5.07722008,13.3877306 5.04633205,13.4572287 C5.01930502,13.5267268 5.003861,13.5962248 5.003861,13.6695839 C5.001287,13.6773059 5,16.2422995 5,21.3645646 C5,22.1097383 5.60617761,22.715916 6.35135135,22.715916 L9.55212355,22.715916 C9.87258687,22.715916 10.1312741,22.4572287 10.1312741,22.1367654 C10.1312741,22.1174604 10.1274131,22.0942943 10.1274131,22.0749893 C10.1274131,22.0518233 10.1312741,22.0325183 10.1312741,22.0093522 L10.1312741,17.8896611 C10.1312741,17.8124411 10.2509653,17.6966109 10.4401544,17.6966109 L12.4324324,17.6966109 C12.6216216,17.6966109 12.7374517,17.8124411 12.7374517,17.8896611 L12.7374517,22.0093522 C12.7374517,22.0325183 12.7451737,22.0518233 12.7451737,22.0749893 C12.7451737,22.0942943 12.7374517,22.1174604 12.7374517,22.1367654 C12.7374517,22.4572287 13,22.715916 13.3166023,22.715916 L16.6486486,22.715916 C17.3938224,22.715916 18,22.1097383 18,21.3607036 L17.9343629,13.4688117 C17.9305019,13.3761476 17.9150579,13.3066495 17.8880309,13.2410125 Z" id="8I"></path>
        </g>
    </g>
</svg>