<?xml version="1.0" encoding="UTF-8" standalone="no"?>
<svg width="21px" height="20px" viewBox="0 0 21 20" version="1.1" xmlns="http://www.w3.org/2000/svg" xmlns:xlink="http://www.w3.org/1999/xlink">
    <!-- Generator: Sketch 50.2 (55047) - http://www.bohemiancoding.com/sketch -->
    <title>1H</title>
    <desc>Created with Sketch.</desc>
    <defs></defs>
    <g id="Desktop" stroke="none" stroke-width="1" fill="none" fill-rule="evenodd">
        <g id="Agent-Profile" transform="translate(-1020.000000, -1409.000000)" fill="#F26453">
            <g id="Speech" transform="translate(1020.000000, 1409.000000)">
                <path d="M19.38195,13.3052632 C19.38195,13.3526316 19.279575,13.4526316 19.11945,13.4526316 L9.8007,13.4526316 C9.7881,13.4526316 9.776025,13.4526316 9.763425,13.4578947 C9.736125,13.4578947 9.708825,13.4578947 9.681,13.4631579 C9.65685,13.4684211 9.632175,13.4736842 9.608025,13.4789474 C9.58335,13.4842105 9.5592,13.4947368 9.53505,13.5 C9.50985,13.5105263 9.4857,13.5210526 9.462075,13.5315789 C9.44055,13.5421053 9.41955,13.5526316 9.39855,13.5684211 C9.373875,13.5789474 9.35025,13.5947368 9.327675,13.6157895 C9.318225,13.6210526 9.3072,13.6263158 9.29775,13.6315789 L4.8132,17.3631579 L4.8132,14.2421053 C4.8132,13.8052632 4.460925,13.4526316 4.0257,13.4526316 L2.05695,13.4526316 C1.896825,13.4526316 1.79445,13.3526316 1.79445,13.3052632 L1.79445,2.03684211 C1.79445,1.98947368 1.896825,1.88947368 2.05695,1.88947368 L19.11945,1.88947368 C19.279575,1.88947368 19.38195,1.98947368 19.38195,2.03684211 L19.38195,13.3052632 Z M19.11945,0.310526316 L2.05695,0.310526316 C1.0437,0.310526316 0.21945,1.08421053 0.21945,2.03684211 L0.21945,13.3052632 C0.21945,14.2578947 1.0437,15.0315789 2.05695,15.0315789 L3.2382,15.0315789 L3.2382,19.0421053 C3.2382,19.3473684 3.4146,19.6263158 3.69075,19.7578947 C3.79785,19.8105263 3.911775,19.8315789 4.025175,19.8315789 C4.205775,19.8315789 4.384275,19.7736842 4.528125,19.6526316 L10.084725,15.0315789 L19.11945,15.0315789 C20.1327,15.0315789 20.95695,14.2578947 20.95695,13.3052632 L20.95695,2.03684211 C20.95695,1.08421053 20.1327,0.310526316 19.11945,0.310526316 Z" id="1H"></path>
            </g>
        </g>
    </g>
</svg>