<?xml version="1.0" encoding="UTF-8" standalone="no"?>
<svg width="15px" height="14px" viewBox="0 0 15 14" version="1.1" xmlns="http://www.w3.org/2000/svg" xmlns:xlink="http://www.w3.org/1999/xlink">
    <!-- Generator: Sketch 50.2 (55047) - http://www.bohemiancoding.com/sketch -->
    <title>4J</title>
    <desc>Created with Sketch.</desc>
    <defs></defs>
    <g id="Symbols" stroke="none" stroke-width="1" fill="none" fill-rule="evenodd">
        <g id="star-rating" transform="translate(-1.000000, -2.000000)" fill="#F26453">
            <path d="M3.81663139,15.9044132 C3.66112815,15.7899736 3.58337653,15.598119 3.61568889,15.4096302 L4.37704892,10.9700463 L1.15254447,7.82968862 C1.01488035,7.69505378 0.965402042,7.49310152 1.02464137,7.31134449 C1.08421729,7.12622158 1.24207664,6.99495261 1.43224835,6.96802564 L5.8886616,6.31841253 L7.88159383,2.28273317 C7.96675037,2.10770787 8.14211225,2 8.33430349,2 C8.52649472,2 8.7018566,2.10770787 8.78701314,2.28273317 L10.7799454,6.31841253 L15.236022,6.96802564 C15.4261937,6.99495261 15.5843897,7.12622158 15.643629,7.31134449 C15.7032049,7.49310152 15.6537266,7.69505378 15.5157259,7.82968862 L12.2915581,10.9700463 L13.0525815,15.4096302 C13.0848939,15.598119 13.0071422,15.7899736 12.851639,15.9044132 C12.6961358,16.015487 12.490481,16.0323163 12.3198314,15.9414378 L8.33430349,13.847866 L4.34843901,15.9414378 C4.27472644,15.9818283 4.19394553,15.9986576 4.11350122,15.9986576 C4.00882263,15.9986576 3.90481721,15.9683648 3.81663139,15.9044132 Z" id="4J"></path>
        </g>
    </g>
</svg>